<!-- <svg xmlns="http://www.w3.org/2000/svg" viewBox="0 0 32 32" fill="none">
  <path
    d="M16 6c-2.5 0-4.8 1.3-6 3.4C9.2 9.1 8.6 9 8 9 5.2 9 3 11.2 3 14c0 2.2 1.7 4 4 4h18c2.2 0 4-1.7 4-4s-1.7-4-4-4c-.6 0-1.2.1-1.8.4C20.8 7.3 18.5 6 16 6z"
    fill="#87CEEB"
  />
</svg> -->

<svg xmlns="http://www.w3.org/2000/svg" viewBox="0 0 32 32" fill="none">
  <path
    d="M16 6c-3 0-5.7 1.7-7.2 4.3C7.2 10.6 5 12.8 5 15.5 5 18.5 7.5 21 10.5 21H22c3 0 5-2 5-5s-2-5-5-5c-.5 0-1.1.1-1.5.3C18.7 8.2 17.4 6 16 6Z"
    fill="#87CEEB"
  />
</svg>
